<?xml version="1.0" encoding="utf-8"?>
<!-- Generator: Adobe Illustrator 24.0.1, SVG Export Plug-In . SVG Version: 6.00 Build 0)  -->
<svg version="1.1" id="Calque_1" xmlns="http://www.w3.org/2000/svg" xmlns:xlink="http://www.w3.org/1999/xlink" x="0px" y="0px"
	 viewBox="0 0 1190.6 841.9" style="enable-background:new 0 0 1190.6 841.9;" xml:space="preserve">
<style type="text/css">
	.st0{fill:none;}
	.st1{fill:#FFFFFF;}
</style>
<g>
	<path class="st0" d="M509.7,327.9h-33.6v38.8h33.6c2.1,0,4-0.8,5.6-2.4s2.5-3.5,2.5-5.7V336c0-2.2-0.8-4.1-2.5-5.7
		C513.7,328.7,511.8,327.9,509.7,327.9z"/>
	<path class="st0" d="M172.6,327.9H139v38.8h33.6c2.1,0,4-0.8,5.6-2.4s2.5-3.5,2.5-5.7V336c0-2.2-0.8-4.1-2.5-5.7
		C176.5,328.7,174.7,327.9,172.6,327.9z"/>
	<path class="st0" d="M71.1,364.2c1.6-1.6,2.5-3.5,2.5-5.6v-22.8c0-2.2-0.8-4.1-2.5-5.7c-1.6-1.6-3.6-2.4-5.8-2.4H42.2v39h23.1
		C67.5,366.7,69.5,365.9,71.1,364.2z"/>
	<path class="st0" d="M76,387.3H42.2v55.8H76c2.1,0,3.9-0.8,5.5-2.4s2.4-3.5,2.4-5.9v-39.4c0-2.1-0.8-4-2.4-5.6
		C80,388.1,78.1,387.3,76,387.3z"/>
	<path class="st1" d="M94.4,367.6V323c0-4.3-1.6-8.1-4.7-11.3c-3.1-3.2-7-4.8-11.6-4.8H21.2v157h67.4c4.5,0,8.3-1.6,11.4-4.7
		s4.7-7,4.7-11.6v-65c0-3.3-1-6.3-2.9-9.2C99.9,370.6,97.4,368.6,94.4,367.6z M42.2,327.7h23.1c2.2,0,4.2,0.8,5.8,2.4
		c1.6,1.6,2.5,3.5,2.5,5.7v22.8c0,2.1-0.8,4-2.5,5.6c-1.6,1.6-3.6,2.5-5.8,2.5H42.2V327.7z M83.9,434.8c0,2.4-0.8,4.4-2.4,5.9
		c-1.6,1.6-3.4,2.4-5.5,2.4H42.2v-55.8H76c2.1,0,3.9,0.8,5.5,2.5c1.6,1.6,2.4,3.5,2.4,5.6V434.8z"/>
	<path class="st1" d="M185.3,307.1h-67.2v156.8H139v-76.4h20.8l20.8,76.4h20.6l-20.6-76.4h4.7c4.3,0,8.1-1.6,11.2-4.7
		c3.1-3.1,4.7-6.9,4.7-11.4v-48.2c0-4.5-1.6-8.3-4.7-11.4C193.4,308.7,189.7,307.1,185.3,307.1z M180.6,358.6c0,2.2-0.8,4.1-2.5,5.7
		c-1.6,1.6-3.5,2.4-5.6,2.4H139v-38.8h33.6c2.1,0,4,0.8,5.6,2.4s2.5,3.5,2.5,5.7v22.6L180.6,358.6L180.6,358.6z"/>
	<rect x="219.6" y="307.1" class="st1" width="20.8" height="156.8"/>
	<path class="st1" d="M325.8,307.1H275c-4.5,0-8.3,1.6-11.4,4.7s-4.7,6.9-4.7,11.4v48.2c0,4.5,1.6,8.3,4.7,11.4s6.9,4.7,11.4,4.7h38
		c2.2,0,4.1,0.8,5.7,2.4s2.4,3.5,2.4,5.7V435c0,2.2-0.8,4.1-2.4,5.7s-3.5,2.4-5.7,2.4h-25.5c-2.1,0-3.9-0.8-5.5-2.4
		s-2.4-3.5-2.4-5.7v-17.2l-20.8-4.7v34.7c0,4.5,1.6,8.3,4.7,11.4s6.9,4.7,11.4,4.7h50.8c4.5,0,8.3-1.6,11.4-4.7s4.7-6.9,4.7-11.4
		v-65c0-4.5-1.6-8.3-4.7-11.4s-6.9-4.7-11.4-4.7h-38.3c-2.1,0-3.9-0.8-5.5-2.4s-2.4-3.5-2.4-5.7V336c0-2.2,0.8-4.1,2.4-5.7
		s3.4-2.4,5.5-2.4H313c2.2,0,4.1,0.8,5.7,2.4s2.4,3.5,2.4,5.7v6.5l20.8,4.9v-24.2c0-4.5-1.6-8.3-4.7-11.4
		C334.1,308.7,330.3,307.1,325.8,307.1z"/>
	<polygon class="st1" points="358.1,463.9 441.4,463.9 441.4,443.1 378.9,443.1 378.9,387.5 415.8,387.5 420.5,366.7 378.9,366.7 
		378.9,327.7 441.4,327.7 441.4,307.1 358.1,307.1 	"/>
	<path class="st1" d="M522.5,307.1h-67.2v156.8h20.8v-76.4h20.8l20.8,76.4h20.6l-20.6-76.4h4.7c4.3,0,8.1-1.6,11.2-4.7
		c3.1-3.1,4.7-6.9,4.7-11.4v-48.2c0-4.5-1.6-8.3-4.7-11.4C530.5,308.7,526.8,307.1,522.5,307.1z M517.8,358.6c0,2.2-0.8,4.1-2.5,5.7
		c-1.6,1.6-3.5,2.4-5.6,2.4h-33.6v-38.8h33.6c2.1,0,4,0.8,5.6,2.4c1.6,1.6,2.5,3.5,2.5,5.7V358.6z"/>
	<polygon class="st1" points="657.7,352.6 647.6,402 667.2,402 	"/>
	<polygon class="st1" points="620.8,445.4 620.8,445.5 615.7,445.5 615.7,324.9 597.2,324.9 597.2,463.9 617,463.9 617.3,462.6 	"/>
	<path class="st1" d="M1071.9,311.9c2.7,2.8,4.2,6.1,4.5,9.8c0,0.5,0.1,1.1,0.1,1.6v29.1l-20.8,4.7V357l0,0v-21
		c0-2.1-0.7-3.9-2.1-5.5s-3.3-2.5-5.7-2.5h-25.5c-2.1,0-4,0.8-5.6,2.5c-1.6,1.6-2.5,3.5-2.5,5.6v99c0,2.4,0.8,4.3,2.5,5.8
		c1.6,1.5,3.5,2.2,5.6,2.2h25.5c2.4,0,4.3-0.7,5.7-2.2c1.4-1.5,2.1-3.4,2.1-5.8v-16.4l20.8-4.9v0.1l0,0v34c0,4.5-1.5,8.3-4.6,11.4
		c-2.2,2.2-4.7,3.6-7.7,4.3h21.9V307.1h-25.7C1065,307.1,1068.8,308.7,1071.9,311.9z"/>
	<polygon class="st1" points="934.3,414.2 956.4,414.2 945.7,358.5 	"/>
	<polygon class="st1" points="1106.9,366.7 1148.6,366.7 1148.5,366.8 1148.6,366.8 1143.9,387.6 1106.9,387.6 1106.9,443.1 
		1169.4,443.1 1169.4,327.8 1106.9,327.8 	"/>
	<polygon class="st1" points="930.2,434.9 924.7,463.6 965.9,463.6 960,434.9 	"/>
	<path class="st1" d="M826.4,311.8c2.8,2.8,4.3,6,4.6,9.7c0,0.5,0.1,1.1,0.1,1.6V358l-20.8-4.7v-0.1l0,0v-17.4
		c0-2.2-0.8-4.1-2.3-5.7c-1.6-1.6-3.5-2.4-5.7-2.4H777c-2.2,0-4.1,0.8-5.7,2.4c-1.6,1.6-2.4,3.5-2.4,5.7V435c0,2.2,0.8,4.1,2.3,5.7
		c1.6,1.6,3.5,2.4,5.7,2.4h25.3c2.2,0,4.1-0.8,5.7-2.4c1.6-1.6,2.4-3.5,2.4-5.7v-21.6h-20.6v-0.1l0,0l4.7-20.8h36.7v0.1l0,0v55.3
		c0,4.5-1.6,8.3-4.7,11.4c-2.2,2.2-4.8,3.6-7.7,4.3h29V307.1H815C819.5,307.1,823.3,308.7,826.4,311.8z"/>
	<path class="st1" d="M748.1,449.4c0-0.5-0.1-1.1-0.1-1.7V323c0-4.3,1.6-8.1,4.7-11.2c3.1-3.1,6.9-4.7,11.4-4.7h-27.3l0,0h-36.4l0,0
		h-34.1v0.2h0.3l27.6,139h-18.5l-5.4-26H644l-4.8,25.1h23.9v18.1h37.3v-0.2h36.4v0.2h23.6c-2.9-0.6-5.5-2.1-7.7-4.3
		C750,456.5,748.4,453.3,748.1,449.4z"/>
	<g>
		<polygon class="st1" points="868.6,307.1 868.6,307.2 868.6,307.2 868.6,443.1 908,443.1 935.4,307.3 935.6,307.3 935.6,307.1 		
			"/>
		<path class="st1" d="M993.5,449.4c-0.1-0.5-0.1-1.1-0.1-1.7V323.2c0-4.3,1.6-8.1,4.9-11.3c3.3-3.2,7-4.8,11.2-4.8h-54.1v0.2h0.3
			l31,156.2h19.2c-2.8-0.6-5.3-2.1-7.7-4.3C995.4,456.5,993.8,453.3,993.5,449.4z"/>
	</g>
</g>
</svg>
