<?xml version="1.0" encoding="utf-8"?>
<!-- Generator: Adobe Illustrator 22.1.0, SVG Export Plug-In . SVG Version: 6.00 Build 0)  -->
<svg version="1.1" id="Calque_1" xmlns="http://www.w3.org/2000/svg" xmlns:xlink="http://www.w3.org/1999/xlink" x="0px" y="0px"
	 viewBox="0 0 815 192" style="enable-background:new 0 0 815 192;" xml:space="preserve">
<style type="text/css">
	.st0{fill:#F7A61B;}
</style>
<path class="st0" d="M52,63.1V30.9c0-3.1-1.1-5.9-3.3-8.2c-2.2-2.3-5-3.5-8.3-3.5H0v113.6h47.9c3.2,0,5.9-1.1,8.1-3.4
	c2.2-2.3,3.3-5.1,3.3-8.4V74c0-2.4-0.7-4.6-2.1-6.6C55.9,65.3,54.1,63.9,52,63.1z M14.9,34.3h16.4c1.6,0,3,0.6,4.1,1.7
	c1.2,1.1,1.7,2.5,1.7,4.1v16.5c0,1.5-0.6,2.9-1.7,4.1c-1.2,1.2-2.5,1.8-4.1,1.8H14.9V34.3z M44.5,111.7c0,1.7-0.6,3.2-1.7,4.3
	c-1.1,1.1-2.4,1.7-3.9,1.7h-24V77.4h24c1.5,0,2.8,0.6,3.9,1.8c1.1,1.2,1.7,2.5,1.7,4.1V111.7z"/>
<path class="st0" d="M116.5,19.4H68.8v113.4h14.8V77.5h14.8l14.8,55.3h14.6l-14.6-55.3h3.3c3.1,0,5.7-1.1,8-3.4
	c2.2-2.3,3.3-5,3.3-8.3V31c0-3.2-1.1-6-3.3-8.3C122.3,20.5,119.6,19.4,116.5,19.4z M113.2,56.6c0,1.6-0.6,3-1.7,4.1
	c-1.2,1.1-2.5,1.7-4,1.7H83.6v-28h23.8c1.5,0,2.8,0.6,4,1.7c1.2,1.1,1.7,2.5,1.7,4.1L113.2,56.6L113.2,56.6z"/>
<path class="st0" d="M155.7,19.4h-14.8v113.4h14.8V19.4z"/>
<path class="st0" d="M216.2,19.4h-36.1c-3.2,0-5.9,1.1-8.1,3.4c-2.2,2.3-3.3,5-3.3,8.3v34.8c0,3.2,1.1,6,3.3,8.3
	c2.2,2.3,4.9,3.4,8.1,3.4h27c1.6,0,2.9,0.6,4.1,1.7c1.1,1.1,1.7,2.5,1.7,4.1v28.5c0,1.6-0.6,3-1.7,4.1c-1.1,1.1-2.5,1.7-4.1,1.7H189
	c-1.5,0-2.8-0.6-3.9-1.7c-1.1-1.1-1.7-2.5-1.7-4.1V99.4L168.7,96v25.1c0,3.2,1.1,6,3.3,8.3c2.2,2.3,4.9,3.4,8.1,3.4h36.1
	c3.2,0,5.9-1.1,8.1-3.4c2.2-2.3,3.3-5,3.3-8.3v-47c0-3.2-1.1-6-3.3-8.3c-2.2-2.3-4.9-3.4-8.1-3.4h-27.2c-1.5,0-2.8-0.6-3.9-1.7
	c-1.1-1.1-1.7-2.5-1.7-4.1V40.3c0-1.6,0.6-3,1.7-4.1c1.1-1.1,2.4-1.7,3.9-1.7h18.1c1.6,0,2.9,0.6,4.1,1.7c1.1,1.1,1.7,2.5,1.7,4.1
	V45l14.8,3.6V31c0-3.2-1.1-6-3.3-8.3C222.1,20.5,219.4,19.4,216.2,19.4z"/>
<path class="st0" d="M239.1,132.8h59.2v-15.1h-44.4V77.5h26.2l3.3-15.1h-29.6V34.3h44.4V19.4h-59.2V132.8z"/>
<path class="st0" d="M355.8,19.4h-47.7v113.4h14.8V77.5h14.8l14.8,55.3h14.6l-14.6-55.3h3.3c3.1,0,5.7-1.1,8-3.4
	c2.2-2.3,3.3-5,3.3-8.3V31c0-3.2-1.1-6-3.3-8.3C361.5,20.5,358.9,19.4,355.8,19.4z M352.5,56.6c0,1.6-0.6,3-1.7,4.1
	c-1.2,1.1-2.5,1.7-4,1.7h-23.8v-28h23.8c1.5,0,2.8,0.6,4,1.7c1.2,1.1,1.7,2.5,1.7,4.1V56.6z"/>
<path class="st0" d="M451.8,52.3L444.6,88h13.9L451.8,52.3z"/>
<path class="st0" d="M425.6,119.4H422V32.3h-13.1v100.5h14l0.2-0.9L425.6,119.4z"/>
<path class="st0" d="M745.8,22.9c1.9,2.1,3,4.4,3.2,7.1c0,0.4,0,0.8,0,1.2v21.1l-14.8,3.4v-0.1V40.3c0-1.5-0.5-2.8-1.5-4
	c-1-1.2-2.4-1.8-4.1-1.8h-18.1c-1.5,0-2.8,0.6-4,1.8c-1.2,1.2-1.7,2.5-1.7,4.1v71.6c0,1.7,0.6,3.1,1.7,4.2c1.2,1.1,2.5,1.6,4,1.6
	h18.1c1.7,0,3-0.5,4.1-1.6c1-1.1,1.5-2.5,1.5-4.2v-11.8l14.8-3.6v0.1v24.6c0,3.2-1.1,6-3.2,8.3c-1.5,1.6-3.4,2.6-5.5,3.1h15.5V19.4
	h-18.3C740.9,19.4,743.6,20.5,745.8,22.9z"/>
<path class="st0" d="M648.1,96.8h15.7l-7.6-40.3L648.1,96.8z"/>
<path class="st0" d="M770.6,62.5h29.6l0,0.1h0l-3.3,15.1h-26.2v40.1H815V34.3h-44.4V62.5z"/>
<path class="st0" d="M645.2,111.8l-3.9,20.8h29.2l-4.2-20.8H645.2z"/>
<path class="st0" d="M571.6,22.8c2,2,3.1,4.3,3.3,7c0,0.4,0,0.8,0,1.2v25.3l-14.8-3.4v-0.1V40.1c0-1.6-0.6-3-1.7-4.1
	c-1.1-1.1-2.5-1.7-4.1-1.7h-18c-1.6,0-2.9,0.6-4.1,1.7c-1.1,1.1-1.7,2.5-1.7,4.1v71.8c0,1.6,0.6,3,1.7,4.1c1.1,1.1,2.5,1.7,4.1,1.7
	h18c1.6,0,2.9-0.6,4.1-1.7c1.1-1.1,1.7-2.5,1.7-4.1V96.2h-14.6l0-0.1h0l3.3-15.1h26.1v0.1v40c0,3.2-1.1,6-3.3,8.3
	c-1.6,1.6-3.4,2.6-5.4,3.1h20.6V19.4h-23.2C566.6,19.4,569.4,20.5,571.6,22.8z"/>
<path class="st0" d="M516,122.3c0-0.4,0-0.8,0-1.2V30.9c0-3.1,1.1-5.8,3.3-8.1c2.2-2.3,4.9-3.4,8.1-3.4H508v0h-25.8v0h-24.2v0.2h0.2
	l19.6,100.5h-13.1l-3.8-18.8h-18.7l-3.4,18.2h17v13.1h26.5v-0.2H508v0.2h16.8c-2.1-0.5-3.9-1.5-5.4-3.1
	C517.3,127.5,516.2,125.1,516,122.3z"/>
<path class="st0" d="M601.5,19.4L601.5,19.4L601.5,19.4l0,98.4h28l19.4-98.2h0.2v-0.2H601.5z"/>
<path class="st0" d="M690.1,122.3c0-0.4,0-0.8,0-1.2V31c0-3.1,1.2-5.9,3.5-8.2c2.3-2.3,5-3.5,8-3.5h-38.4v0.2h0.2l22,113H699
	c-2-0.5-3.8-1.5-5.4-3.1C691.5,127.5,690.4,125.1,690.1,122.3z"/>
</svg>
