<?xml version="1.0" encoding="utf-8"?>
<!-- Generator: Adobe Illustrator 24.0.1, SVG Export Plug-In . SVG Version: 6.00 Build 0)  -->
<svg version="1.1" id="Calque_1" xmlns="http://www.w3.org/2000/svg" xmlns:xlink="http://www.w3.org/1999/xlink" x="0px" y="0px"
	 viewBox="0 0 1190.6 841.9" style="enable-background:new 0 0 1190.6 841.9;" xml:space="preserve">
<style type="text/css">
	.st0{fill:#FAA52E;}
</style>
<g>
	<path class="st0" d="M409.7,293c-7.5-10.9-17-18.4-28.5-22.5v-172c0-16.7-6.1-31.3-18.2-43.7c-12.1-12.4-27.1-18.6-44.9-18.6H98.5
		v372.3l81.3-9.8v-52.1h130.5c8.1,0,15.1,3.2,21.2,9.5c6.1,6.3,9.1,13.5,9.1,21.6v1.6l80.4-9.7v-41.2
		C420.9,315.8,417.1,304,409.7,293z M300.7,236c0,8.1-3.2,15.3-9.5,21.6c-6.3,6.3-13.8,9.5-22.5,9.5h-89V116.7h89
		c8.6,0,16.1,3,22.5,9.1c6.3,6.1,9.5,13.4,9.5,22V236z"/>
	<polygon class="st0" points="533,37.2 452.6,37.2 452.6,365.8 533,356.1 	"/>
	<path class="st0" d="M1092.1,233.4V98.6c0-16.7-6.1-31.1-18.2-43.2s-26.8-18.2-44.1-18.2H833.6c-17.3,0-32,6.1-44.1,18.2
		c-12.1,12.1-18.2,26.5-18.2,43.2v228.7l80.4-9.7V147.8c0-8.6,3-16,9.1-22c6.1-6.1,13.4-9.1,22-9.1h97.7c8.6,0,16,3,22,9.1
		c6.1,6.1,9.1,13.4,9.1,22v67.4L1092.1,233.4z"/>
	<path class="st0" d="M179.7,561.9h130.5c8.1,0,15.1-3,21.2-9.1c6.1-6.1,9.1-13.7,9.1-22.9V379.4l-160.8,19.4V561.9z"/>
	<path class="st0" d="M533,561.9h206.6v80.4h-287V365.8l-31.8,3.8v209.5c0,17.9-6.1,32.8-18.2,45c-12.1,12.1-26.8,18.2-44.1,18.2
		H98.5v163.3l993.6-120.1V580c0,17.3-6.1,32-18.2,44.1c-12.1,12.1-26.8,18.2-44.1,18.2H833.6c-17.3,0-32-6.1-44.1-18.2
		c-12.1-12.1-18.2-26.8-18.2-44.1V327.3L533,356.1V561.9z"/>
	<path class="st0" d="M860.9,552.8c6.1,6.1,13.4,9.1,22,9.1h97.7c8.6,0,16-3,22-9.1c6.1-6.1,9.1-13.4,9.1-22v-83.9h-79.5l18.2-80.4
		h141.8v-78l-240.3,29v213.2C851.8,539.4,854.8,546.8,860.9,552.8z"/>
</g>
</svg>
