<svg width="63" height="48" viewBox="0 0 63 48" fill="none" xmlns="http://www.w3.org/2000/svg">
<path d="M57.0938 0H5.90625C2.64428 0 0 2.64428 0 5.90625V41.3438C0 44.6057 2.64428 47.25 5.90625 47.25H57.0938C60.3557 47.25 63 44.6057 63 41.3438V5.90625C63 2.64428 60.3557 0 57.0938 0ZM57.0938 5.90625V10.9272C54.3348 13.1739 49.9364 16.6674 40.5332 24.0304C38.461 25.6604 34.3562 29.5764 31.5 29.5308C28.6443 29.5769 24.5381 25.6598 22.4668 24.0304C13.0651 16.6685 8.66558 13.1743 5.90625 10.9272V5.90625H57.0938ZM5.90625 41.3438V18.506C8.72575 20.7517 12.7242 23.9031 18.8185 28.6753C21.508 30.7924 26.2178 35.4658 31.5 35.4374C36.7562 35.4658 41.4064 30.8602 44.1804 28.6763C50.2746 23.9042 54.2741 20.752 57.0938 18.5061V41.3438H5.90625Z" fill="black"/>
</svg>
