<svg width="76" height="119" viewBox="0 0 76 119" fill="none" xmlns="http://www.w3.org/2000/svg">
<path d="M18.0928 0.0816467L17.7562 0.0604629C14.5689 -0.183151 11.1082 0.314668 8.01556 1.45859C5.00711 2.58134 2.59826 4.1913 1.2413 6.01311C0.862616 6.52152 0.568083 7.04052 0.368222 7.55953L0.16836 7.4642V8.17386C-0.0525394 9.00003 -0.0525394 9.8156 0.16836 10.5994V89.7315L60.6528 118.997V36.7296L3.60808 9.12713C3.6712 8.84115 3.8395 8.52339 4.09196 8.17386C5.95383 5.69535 11.6025 3.31218 17.1566 3.61934L72.4236 30.205V103.533C72.4236 104.528 73.223 105.333 74.2118 105.333C75.2006 105.333 76 104.528 76 103.533V27.9383L18.0928 0.0816467Z" fill="white"/>
</svg>
