<svg width="279" height="98" viewBox="0 0 279 98" fill="none" xmlns="http://www.w3.org/2000/svg">
<path d="M43.8092 63.6764C43.8092 63.6764 42.4788 58.1077 31.5933 55.8698C20.7078 53.6318 19.8369 52.4608 19.8369 47.7248L24.433 41.6616C24.433 41.6616 26.0538 43.223 35.4637 45.0185C44.8736 46.814 43.8092 63.6764 43.8092 63.6764Z" fill="url(#paint0_linear)"/>
<path d="M17.7563 35.027C17.7563 35.027 19.1594 22.9786 9.72526 19.9079C0.29116 16.8372 0.14602 12.1792 0.14602 12.1792C0.14602 12.1792 -1.57147 24.644 6.77408 27.7667C15.1196 30.8894 17.7563 35.027 17.7563 35.027Z" fill="url(#paint1_linear)"/>
<path d="M58.1531 0C58.1531 0 61.4914 23.3942 44.7277 31.1229C27.964 38.8516 24.9403 40.8293 19.8604 48.9223C19.8604 48.9223 16.9092 28.4686 26.3191 21.2083C35.729 13.9481 53.2426 7.93686 58.1531 0Z" fill="url(#paint2_linear)"/>
<path d="M65.7821 46.7348V56.633H61.3965V31.2861H68.5339C70.1678 31.2861 71.5437 31.4712 72.6616 31.8412C73.7795 32.2112 74.7254 32.6737 75.4993 33.3213C76.2733 33.9688 76.7892 34.7089 77.1332 35.634C77.4772 36.559 77.6491 37.4841 77.6491 38.5942C77.6491 39.4267 77.5632 40.2593 77.3052 40.9993C77.0472 41.7394 76.7032 42.4795 76.2733 43.0345C75.8433 43.682 75.3273 44.2371 74.6394 44.6996C73.9514 45.1622 73.2635 45.5322 72.4036 45.8097C72.9195 46.1797 73.4355 46.6423 73.8655 47.2898L79.713 56.633H75.7573C75.4133 56.633 75.0694 56.5405 74.8114 56.3555C74.5534 56.1705 74.2954 55.9855 74.1235 55.6154L69.1358 47.4748C68.9639 47.1973 68.7059 46.9198 68.5339 46.8273C68.2759 46.7348 68.018 46.6423 67.588 46.6423H65.7821V46.7348ZM65.7821 43.4045H68.5339C69.3938 43.4045 70.0818 43.312 70.6837 43.0345C71.2857 42.8495 71.8016 42.4795 72.2316 42.1094C72.6616 41.7394 72.9195 41.2769 73.0915 40.7218C73.2635 40.1668 73.3495 39.6117 73.3495 38.9642C73.3495 37.6691 72.9195 36.6515 72.1456 36.004C71.3717 35.3564 70.1678 34.9864 68.5339 34.9864H65.7821V43.4045Z" fill="#FDC735"/>
<path d="M103.705 31.3786V35.079H93.2998V42.1095H101.555V45.7173H93.2998V52.8404H103.705V56.6332H88.8281V31.2861H103.705V31.3786Z" fill="#FDC735"/>
<path d="M113.767 56.6332V31.2861H121.85C123.398 31.2861 124.688 31.4711 125.806 31.7487C126.924 32.0262 127.783 32.4887 128.471 33.1363C129.159 33.6913 129.675 34.4314 130.019 35.264C130.363 36.0965 130.535 37.0216 130.535 38.0392C130.535 38.5942 130.449 39.2418 130.277 39.7043C130.105 40.2594 129.847 40.7219 129.503 41.1845C129.159 41.647 128.729 42.1095 128.213 42.4796C127.698 42.8496 127.096 43.2196 126.322 43.4971C129.589 44.2372 131.137 46.1799 131.137 49.1401C131.137 50.2502 130.965 51.1753 130.535 52.1004C130.191 53.0254 129.589 53.7655 128.901 54.413C128.213 55.0606 127.268 55.6156 126.236 55.9857C125.204 56.3557 124 56.5407 122.624 56.5407H113.767V56.6332ZM118.152 42.2946H121.678C123.14 42.2946 124.258 42.017 125.032 41.462C125.806 40.9069 126.15 39.9819 126.15 38.6867C126.15 37.3916 125.806 36.4666 125.118 35.9115C124.43 35.3565 123.312 35.079 121.85 35.079H118.066V42.2946H118.152ZM118.152 45.5323V52.9329H122.624C123.398 52.9329 124.086 52.8404 124.688 52.6554C125.204 52.4704 125.634 52.1929 125.978 51.8228C126.322 51.4528 126.58 51.0828 126.666 50.6202C126.838 50.1577 126.924 49.6952 126.924 49.1401C126.924 48.5851 126.838 48.1225 126.666 47.66C126.494 47.1974 126.236 46.8274 125.892 46.5499C125.548 46.2724 125.118 45.9948 124.516 45.8098C124 45.6248 123.312 45.5323 122.538 45.5323H118.152Z" fill="#FDC735"/>
<path d="M163.815 43.9524C163.815 45.8026 163.557 47.5602 162.955 49.1329C162.353 50.7055 161.579 52.0931 160.547 53.2032C159.515 54.3133 158.225 55.2384 156.763 55.886C155.301 56.5335 153.668 56.811 151.862 56.811C150.056 56.811 148.422 56.441 146.96 55.886C145.498 55.2384 144.208 54.3133 143.176 53.2032C142.144 52.0931 141.285 50.7055 140.769 49.1329C140.167 47.5602 139.909 45.8026 139.909 43.9524C139.909 42.1022 140.167 40.3446 140.769 38.7719C141.371 37.1993 142.144 35.8117 143.176 34.7016C144.208 33.5915 145.498 32.6664 146.96 32.0188C148.422 31.3713 150.056 31.0938 151.862 31.0938C153.668 31.0938 155.301 31.4638 156.763 32.1113C158.225 32.7589 159.515 33.684 160.547 34.7941C161.579 35.9042 162.439 37.2918 162.955 38.8644C163.471 40.4371 163.815 42.1022 163.815 43.9524ZM159.343 43.9524C159.343 42.5648 159.171 41.3622 158.827 40.2521C158.483 39.142 157.967 38.2169 157.365 37.4768C156.763 36.7367 155.989 36.0892 155.043 35.7192C154.098 35.3491 153.066 35.0716 151.948 35.0716C150.83 35.0716 149.798 35.2566 148.852 35.7192C147.906 36.0892 147.132 36.7367 146.53 37.4768C145.842 38.2169 145.412 39.142 145.068 40.2521C144.724 41.3622 144.552 42.5648 144.552 43.9524C144.552 45.34 144.724 46.5426 145.068 47.6527C145.412 48.7628 145.928 49.6879 146.53 50.428C147.218 51.168 147.992 51.8156 148.852 52.1856C149.798 52.5557 150.83 52.8332 151.948 52.8332C153.066 52.8332 154.098 52.6482 155.043 52.1856C155.989 51.8156 156.763 51.168 157.365 50.428C157.967 49.6879 158.483 48.7628 158.827 47.6527C159.171 46.6351 159.343 45.34 159.343 43.9524Z" fill="#FDC735"/>
<path d="M178.003 46.7349V56.6332H173.618V31.2861H180.755C182.389 31.2861 183.765 31.4712 184.883 31.8412C186.001 32.2112 186.947 32.6737 187.721 33.3213C188.494 33.9689 189.01 34.7089 189.354 35.634C189.698 36.5591 189.87 37.4842 189.87 38.5942C189.87 39.4268 189.784 40.2594 189.526 40.9994C189.268 41.7395 188.924 42.4796 188.494 43.0346C188.065 43.6822 187.549 44.2372 186.861 44.6997C186.173 45.1623 185.485 45.5323 184.625 45.8098C185.141 46.1799 185.657 46.6424 186.087 47.29L191.934 56.6332H187.979C187.635 56.6332 187.291 56.5407 187.033 56.3557C186.775 56.1707 186.517 55.9857 186.345 55.6157L181.443 47.475C181.271 47.1975 181.013 46.9199 180.841 46.8274C180.583 46.7349 180.325 46.6424 179.895 46.6424H178.003V46.7349ZM178.003 43.4046H180.755C181.615 43.4046 182.303 43.3121 182.905 43.0346C183.507 42.8496 184.023 42.4796 184.453 42.1095C184.883 41.7395 185.141 41.277 185.313 40.7219C185.485 40.1669 185.571 39.6118 185.571 38.9643C185.571 37.6692 185.141 36.6516 184.367 36.004C183.593 35.3565 182.389 34.9864 180.755 34.9864H177.917V43.4046H178.003Z" fill="#FDC735"/>
<path d="M203.887 31.3786C204.059 31.3786 204.145 31.4711 204.231 31.4711C204.317 31.5637 204.403 31.5637 204.489 31.6562C204.575 31.7487 204.661 31.8412 204.833 32.0262L217.216 48.9551C217.216 48.5851 217.13 48.1225 217.13 47.7525C217.13 47.3825 217.13 47.0124 217.13 46.6424V31.2861H221V56.6332H218.764C218.42 56.6332 218.162 56.5407 217.904 56.4482C217.646 56.3557 217.474 56.0782 217.216 55.8007L204.833 38.9643C204.833 39.3343 204.919 39.7043 204.919 40.0744C204.919 40.4444 204.919 40.8144 204.919 41.092V56.6332H201.05V31.2861H203.371C203.629 31.3786 203.801 31.3786 203.887 31.3786Z" fill="#FDC735"/>
<path d="M64.416 86.044H71.856V88H62.088V70.804H64.416V86.044ZM72.1114 69.904C72.3434 70.288 72.5114 70.672 72.6154 71.056C72.7194 71.44 72.7714 71.824 72.7714 72.208C72.7714 72.936 72.5914 73.632 72.2314 74.296C71.8794 74.952 71.3874 75.556 70.7554 76.108L70.0954 75.7C70.0314 75.66 69.9874 75.616 69.9634 75.568C69.9474 75.52 69.9394 75.472 69.9394 75.424C69.9394 75.312 69.9794 75.216 70.0594 75.136C70.1874 74.984 70.3114 74.82 70.4314 74.644C70.5514 74.46 70.6594 74.272 70.7554 74.08C70.8514 73.88 70.9274 73.672 70.9834 73.456C71.0394 73.24 71.0674 73.012 71.0674 72.772C71.0674 72.516 71.0274 72.252 70.9474 71.98C70.8754 71.708 70.7474 71.42 70.5634 71.116C70.5074 71.028 70.4794 70.94 70.4794 70.852C70.4794 70.66 70.5874 70.52 70.8034 70.432L72.1114 69.904ZM88.0016 88H86.2016C85.9936 88 85.8256 87.948 85.6976 87.844C85.5696 87.74 85.4736 87.608 85.4096 87.448L83.8016 83.296H76.0856L74.4776 87.448C74.4216 87.592 74.3256 87.72 74.1896 87.832C74.0536 87.944 73.8856 88 73.6856 88H71.8856L78.7616 70.804H81.1256L88.0016 88ZM76.7336 81.616H83.1536L80.4536 74.62C80.2776 74.188 80.1056 73.648 79.9376 73C79.8496 73.328 79.7616 73.632 79.6736 73.912C79.5936 74.184 79.5136 74.424 79.4336 74.632L76.7336 81.616ZM89.8301 88V75.844H91.0541C91.2861 75.844 91.4461 75.888 91.5341 75.976C91.6221 76.064 91.6821 76.216 91.7141 76.432L91.8581 78.328C92.2741 77.48 92.7861 76.82 93.3941 76.348C94.0101 75.868 94.7301 75.628 95.5541 75.628C95.8901 75.628 96.1941 75.668 96.4661 75.748C96.7381 75.82 96.9901 75.924 97.2221 76.06L96.9461 77.656C96.8901 77.856 96.7661 77.956 96.5741 77.956C96.4621 77.956 96.2901 77.92 96.0581 77.848C95.8261 77.768 95.5021 77.728 95.0861 77.728C94.3421 77.728 93.7181 77.944 93.2141 78.376C92.7181 78.808 92.3021 79.436 91.9661 80.26V88H89.8301ZM103.194 88.192C102.234 88.192 101.494 87.924 100.974 87.388C100.462 86.852 100.206 86.08 100.206 85.072V77.632H98.7418C98.6138 77.632 98.5058 77.596 98.4178 77.524C98.3298 77.444 98.2858 77.324 98.2858 77.164V76.312L100.278 76.06L100.77 72.304C100.786 72.184 100.838 72.088 100.926 72.016C101.014 71.936 101.126 71.896 101.262 71.896H102.342V76.084H105.822V77.632H102.342V84.928C102.342 85.44 102.466 85.82 102.714 86.068C102.962 86.316 103.282 86.44 103.674 86.44C103.898 86.44 104.09 86.412 104.25 86.356C104.418 86.292 104.562 86.224 104.682 86.152C104.802 86.08 104.902 86.016 104.982 85.96C105.07 85.896 105.146 85.864 105.21 85.864C105.322 85.864 105.422 85.932 105.51 86.068L106.134 87.088C105.766 87.432 105.322 87.704 104.802 87.904C104.282 88.096 103.746 88.192 103.194 88.192ZM121.66 88C121.356 88 121.164 87.852 121.084 87.556L120.892 86.08C120.372 86.712 119.776 87.22 119.104 87.604C118.44 87.98 117.676 88.168 116.812 88.168C116.116 88.168 115.484 88.036 114.916 87.772C114.348 87.5 113.864 87.104 113.464 86.584C113.064 86.064 112.756 85.416 112.54 84.64C112.324 83.864 112.216 82.972 112.216 81.964C112.216 81.068 112.336 80.236 112.576 79.468C112.816 78.692 113.16 78.02 113.608 77.452C114.064 76.884 114.616 76.44 115.264 76.12C115.912 75.792 116.648 75.628 117.472 75.628C118.216 75.628 118.852 75.756 119.38 76.012C119.908 76.26 120.38 76.612 120.796 77.068V70.324H122.932V88H121.66ZM117.52 86.44C118.216 86.44 118.824 86.28 119.344 85.96C119.872 85.64 120.356 85.188 120.796 84.604V78.724C120.404 78.196 119.972 77.828 119.5 77.62C119.036 77.404 118.52 77.296 117.952 77.296C116.816 77.296 115.944 77.7 115.336 78.508C114.728 79.316 114.424 80.468 114.424 81.964C114.424 82.756 114.492 83.436 114.628 84.004C114.764 84.564 114.964 85.028 115.228 85.396C115.492 85.756 115.816 86.02 116.2 86.188C116.584 86.356 117.024 86.44 117.52 86.44ZM131.322 75.652C132.05 75.652 132.722 75.776 133.338 76.024C133.954 76.264 134.486 76.616 134.934 77.08C135.382 77.536 135.73 78.104 135.978 78.784C136.234 79.456 136.362 80.224 136.362 81.088C136.362 81.424 136.326 81.648 136.254 81.76C136.182 81.872 136.046 81.928 135.846 81.928H127.758C127.774 82.696 127.878 83.364 128.07 83.932C128.262 84.5 128.526 84.976 128.862 85.36C129.198 85.736 129.598 86.02 130.062 86.212C130.526 86.396 131.046 86.488 131.622 86.488C132.158 86.488 132.618 86.428 133.002 86.308C133.394 86.18 133.73 86.044 134.01 85.9C134.29 85.756 134.522 85.624 134.706 85.504C134.898 85.376 135.062 85.312 135.198 85.312C135.374 85.312 135.51 85.38 135.606 85.516L136.206 86.296C135.942 86.616 135.626 86.896 135.258 87.136C134.89 87.368 134.494 87.56 134.07 87.712C133.654 87.864 133.222 87.976 132.774 88.048C132.326 88.128 131.882 88.168 131.442 88.168C130.602 88.168 129.826 88.028 129.114 87.748C128.41 87.46 127.798 87.044 127.278 86.5C126.766 85.948 126.366 85.268 126.078 84.46C125.79 83.652 125.646 82.724 125.646 81.676C125.646 80.828 125.774 80.036 126.03 79.3C126.294 78.564 126.67 77.928 127.158 77.392C127.646 76.848 128.242 76.424 128.946 76.12C129.65 75.808 130.442 75.652 131.322 75.652ZM131.37 77.224C130.338 77.224 129.526 77.524 128.934 78.124C128.342 78.716 127.974 79.54 127.83 80.596H134.442C134.442 80.1 134.374 79.648 134.238 79.24C134.102 78.824 133.902 78.468 133.638 78.172C133.374 77.868 133.05 77.636 132.666 77.476C132.29 77.308 131.858 77.224 131.37 77.224ZM142.2 75.844H143.952C144.12 75.844 144.26 75.888 144.372 75.976C144.484 76.064 144.564 76.168 144.612 76.288L147.696 84.112C147.808 84.4 147.896 84.688 147.96 84.976C148.024 85.264 148.084 85.548 148.14 85.828C148.204 85.548 148.272 85.264 148.344 84.976C148.416 84.688 148.508 84.4 148.62 84.112L151.74 76.288C151.788 76.16 151.864 76.056 151.968 75.976C152.08 75.888 152.216 75.844 152.376 75.844H154.044L149.088 88H147.156L142.2 75.844ZM158.394 75.844V88H156.258V75.844H158.394ZM158.874 72.028C158.874 72.236 158.83 72.432 158.742 72.616C158.662 72.792 158.55 72.952 158.406 73.096C158.27 73.232 158.11 73.34 157.926 73.42C157.742 73.5 157.546 73.54 157.338 73.54C157.13 73.54 156.934 73.5 156.75 73.42C156.574 73.34 156.414 73.232 156.27 73.096C156.134 72.952 156.026 72.792 155.946 72.616C155.866 72.432 155.826 72.236 155.826 72.028C155.826 71.82 155.866 71.624 155.946 71.44C156.026 71.248 156.134 71.084 156.27 70.948C156.414 70.804 156.574 70.692 156.75 70.612C156.934 70.532 157.13 70.492 157.338 70.492C157.546 70.492 157.742 70.532 157.926 70.612C158.11 70.692 158.27 70.804 158.406 70.948C158.55 71.084 158.662 71.248 158.742 71.44C158.83 71.624 158.874 71.82 158.874 72.028ZM160.622 75.844H162.374C162.542 75.844 162.682 75.888 162.794 75.976C162.906 76.064 162.986 76.168 163.034 76.288L166.118 84.112C166.23 84.4 166.318 84.688 166.382 84.976C166.446 85.264 166.506 85.548 166.562 85.828C166.626 85.548 166.694 85.264 166.766 84.976C166.838 84.688 166.93 84.4 167.042 84.112L170.162 76.288C170.21 76.16 170.286 76.056 170.39 75.976C170.502 75.888 170.638 75.844 170.798 75.844H172.466L167.51 88H165.578L160.622 75.844ZM174.44 88V75.844H175.664C175.896 75.844 176.056 75.888 176.144 75.976C176.232 76.064 176.292 76.216 176.324 76.432L176.468 78.328C176.884 77.48 177.396 76.82 178.004 76.348C178.62 75.868 179.34 75.628 180.164 75.628C180.5 75.628 180.804 75.668 181.076 75.748C181.348 75.82 181.6 75.924 181.832 76.06L181.556 77.656C181.5 77.856 181.376 77.956 181.184 77.956C181.072 77.956 180.9 77.92 180.668 77.848C180.436 77.768 180.112 77.728 179.696 77.728C178.952 77.728 178.328 77.944 177.824 78.376C177.328 78.808 176.912 79.436 176.576 80.26V88H174.44ZM188.931 75.652C189.659 75.652 190.331 75.776 190.947 76.024C191.563 76.264 192.095 76.616 192.543 77.08C192.991 77.536 193.339 78.104 193.587 78.784C193.843 79.456 193.971 80.224 193.971 81.088C193.971 81.424 193.935 81.648 193.863 81.76C193.791 81.872 193.655 81.928 193.455 81.928H185.367C185.383 82.696 185.487 83.364 185.679 83.932C185.871 84.5 186.135 84.976 186.471 85.36C186.807 85.736 187.207 86.02 187.671 86.212C188.135 86.396 188.655 86.488 189.231 86.488C189.767 86.488 190.227 86.428 190.611 86.308C191.003 86.18 191.339 86.044 191.619 85.9C191.899 85.756 192.131 85.624 192.315 85.504C192.507 85.376 192.671 85.312 192.807 85.312C192.983 85.312 193.119 85.38 193.215 85.516L193.815 86.296C193.551 86.616 193.235 86.896 192.867 87.136C192.499 87.368 192.103 87.56 191.679 87.712C191.263 87.864 190.831 87.976 190.383 88.048C189.935 88.128 189.491 88.168 189.051 88.168C188.211 88.168 187.435 88.028 186.723 87.748C186.019 87.46 185.407 87.044 184.887 86.5C184.375 85.948 183.975 85.268 183.687 84.46C183.399 83.652 183.255 82.724 183.255 81.676C183.255 80.828 183.383 80.036 183.639 79.3C183.903 78.564 184.279 77.928 184.767 77.392C185.255 76.848 185.851 76.424 186.555 76.12C187.259 75.808 188.051 75.652 188.931 75.652ZM188.979 77.224C187.947 77.224 187.135 77.524 186.543 78.124C185.951 78.716 185.583 79.54 185.439 80.596H192.051C192.051 80.1 191.983 79.648 191.847 79.24C191.711 78.824 191.511 78.468 191.247 78.172C190.983 77.868 190.659 77.636 190.275 77.476C189.899 77.308 189.467 77.224 188.979 77.224ZM201.346 88V75.844H202.618C202.922 75.844 203.114 75.992 203.194 76.288L203.35 77.536C203.798 76.984 204.298 76.532 204.85 76.18C205.41 75.828 206.058 75.652 206.794 75.652C207.618 75.652 208.282 75.88 208.786 76.336C209.298 76.792 209.666 77.408 209.89 78.184C210.058 77.744 210.278 77.364 210.55 77.044C210.83 76.724 211.142 76.46 211.486 76.252C211.83 76.044 212.194 75.892 212.578 75.796C212.97 75.7 213.366 75.652 213.766 75.652C214.406 75.652 214.974 75.756 215.47 75.964C215.974 76.164 216.398 76.46 216.742 76.852C217.094 77.244 217.362 77.728 217.546 78.304C217.73 78.872 217.822 79.524 217.822 80.26V88H215.686V80.26C215.686 79.308 215.478 78.588 215.062 78.1C214.646 77.604 214.042 77.356 213.25 77.356C212.898 77.356 212.562 77.42 212.242 77.548C211.93 77.668 211.654 77.848 211.414 78.088C211.174 78.328 210.982 78.632 210.838 79C210.702 79.36 210.634 79.78 210.634 80.26V88H208.498V80.26C208.498 79.284 208.302 78.556 207.91 78.076C207.518 77.596 206.946 77.356 206.194 77.356C205.666 77.356 205.174 77.5 204.718 77.788C204.27 78.068 203.858 78.452 203.482 78.94V88H201.346ZM223.433 75.844V88H221.297V75.844H223.433ZM223.913 72.028C223.913 72.236 223.869 72.432 223.781 72.616C223.701 72.792 223.589 72.952 223.445 73.096C223.309 73.232 223.149 73.34 222.965 73.42C222.781 73.5 222.585 73.54 222.377 73.54C222.169 73.54 221.973 73.5 221.789 73.42C221.613 73.34 221.453 73.232 221.309 73.096C221.173 72.952 221.065 72.792 220.985 72.616C220.905 72.432 220.865 72.236 220.865 72.028C220.865 71.82 220.905 71.624 220.985 71.44C221.065 71.248 221.173 71.084 221.309 70.948C221.453 70.804 221.613 70.692 221.789 70.612C221.973 70.532 222.169 70.492 222.377 70.492C222.585 70.492 222.781 70.532 222.965 70.612C223.149 70.692 223.309 70.804 223.445 70.948C223.589 71.084 223.701 71.248 223.781 71.44C223.869 71.624 223.913 71.82 223.913 72.028ZM232.009 75.652C232.737 75.652 233.409 75.776 234.025 76.024C234.641 76.264 235.173 76.616 235.621 77.08C236.069 77.536 236.417 78.104 236.665 78.784C236.921 79.456 237.049 80.224 237.049 81.088C237.049 81.424 237.013 81.648 236.941 81.76C236.869 81.872 236.733 81.928 236.533 81.928H228.445C228.461 82.696 228.565 83.364 228.757 83.932C228.949 84.5 229.213 84.976 229.549 85.36C229.885 85.736 230.285 86.02 230.749 86.212C231.213 86.396 231.733 86.488 232.309 86.488C232.845 86.488 233.305 86.428 233.689 86.308C234.081 86.18 234.417 86.044 234.697 85.9C234.977 85.756 235.209 85.624 235.393 85.504C235.585 85.376 235.749 85.312 235.885 85.312C236.061 85.312 236.197 85.38 236.293 85.516L236.893 86.296C236.629 86.616 236.313 86.896 235.945 87.136C235.577 87.368 235.181 87.56 234.757 87.712C234.341 87.864 233.909 87.976 233.461 88.048C233.013 88.128 232.569 88.168 232.129 88.168C231.289 88.168 230.513 88.028 229.801 87.748C229.097 87.46 228.485 87.044 227.965 86.5C227.453 85.948 227.053 85.268 226.765 84.46C226.477 83.652 226.333 82.724 226.333 81.676C226.333 80.828 226.461 80.036 226.717 79.3C226.981 78.564 227.357 77.928 227.845 77.392C228.333 76.848 228.929 76.424 229.633 76.12C230.337 75.808 231.129 75.652 232.009 75.652ZM232.057 77.224C231.025 77.224 230.213 77.524 229.621 78.124C229.029 78.716 228.661 79.54 228.517 80.596H235.129C235.129 80.1 235.061 79.648 234.925 79.24C234.789 78.824 234.589 78.468 234.325 78.172C234.061 77.868 233.737 77.636 233.353 77.476C232.977 77.308 232.545 77.224 232.057 77.224ZM241.631 75.844V83.596C241.631 84.516 241.843 85.228 242.267 85.732C242.691 86.236 243.331 86.488 244.187 86.488C244.811 86.488 245.399 86.34 245.951 86.044C246.503 85.748 247.011 85.336 247.475 84.808V75.844H249.611V88H248.339C248.035 88 247.843 87.852 247.763 87.556L247.595 86.248C247.067 86.832 246.475 87.304 245.819 87.664C245.163 88.016 244.411 88.192 243.563 88.192C242.899 88.192 242.311 88.084 241.799 87.868C241.295 87.644 240.871 87.332 240.527 86.932C240.183 86.532 239.923 86.048 239.747 85.48C239.579 84.912 239.495 84.284 239.495 83.596V75.844H241.631ZM255.963 81.772L251.871 75.844H253.923C254.099 75.844 254.227 75.872 254.307 75.928C254.387 75.984 254.459 76.064 254.523 76.168L257.499 80.728C257.571 80.504 257.675 80.28 257.811 80.056L260.427 76.216C260.507 76.104 260.587 76.016 260.667 75.952C260.747 75.88 260.847 75.844 260.967 75.844H262.935L258.843 81.652L263.103 88H261.051C260.875 88 260.735 87.956 260.631 87.868C260.535 87.772 260.455 87.668 260.391 87.556L257.331 82.792C257.275 83.024 257.191 83.232 257.079 83.416L254.247 87.556C254.167 87.668 254.079 87.772 253.983 87.868C253.895 87.956 253.771 88 253.611 88H251.703L255.963 81.772Z" fill="#F18725"/>
<defs>
<linearGradient id="paint0_linear" x1="24.6679" y1="52.6669" x2="48.6887" y2="52.6669" gradientUnits="userSpaceOnUse">
<stop stop-color="#FEC834"/>
<stop offset="1" stop-color="#F07F23"/>
</linearGradient>
<linearGradient id="paint1_linear" x1="-11.0983" y1="23.606" x2="51.2707" y2="23.606" gradientUnits="userSpaceOnUse">
<stop stop-color="#FEC834"/>
<stop offset="1" stop-color="#F07F23"/>
</linearGradient>
<linearGradient id="paint2_linear" x1="89.5802" y1="24.4747" x2="12.1005" y2="24.4747" gradientUnits="userSpaceOnUse">
<stop stop-color="#FEC834"/>
<stop offset="1" stop-color="#F07F23"/>
</linearGradient>
</defs>
</svg>
