<svg width="79" height="102" viewBox="0 0 79 102" fill="none" xmlns="http://www.w3.org/2000/svg">
<path d="M71.8294 9.01274C69.8957 10.0714 67.9052 10.9297 65.8294 11.6164C63.7251 12.2745 61.564 12.7609 59.3744 13.0756C58.2654 13.1901 57.1564 13.3331 56.019 13.3618C54.91 13.4476 53.7725 13.4476 52.6351 13.4476C50.3602 13.419 48.0853 13.2187 45.782 12.9326C41.2038 12.3031 36.654 11.2445 32.1611 9.81388C29.9147 9.09858 27.6967 8.32606 25.5071 7.43909C24.4265 7.00991 23.3175 6.55212 22.2654 6.06572L20.673 5.32181L19.9052 4.94986L19.1943 4.60651L10.0095 0L13.4787 9.58498L13.8768 10.6722C14.019 11.0442 14.1327 11.3875 14.2464 11.7881C14.4739 12.5606 14.7299 13.3045 14.9289 14.1057C15.128 14.9068 15.3555 15.6793 15.5261 16.4804C15.6967 17.2816 15.8957 18.0827 16.0664 18.9125C16.7488 22.1742 17.3175 25.5218 17.8009 28.898C18.3128 32.2742 18.7393 35.6504 19.1374 39.0552C19.564 42.46 19.9052 45.8649 20.2749 49.2983C20.4455 51.015 20.6161 52.7317 20.7867 54.4484L21.2701 59.5986L22.2085 69.8988C22.5213 73.3037 22.8057 76.7085 23.1185 80.1133C20.8436 76.7085 17.0047 74.4481 12.6256 74.4481C5.65877 74.4195 0 80.1133 0 87.1232C0 94.1331 5.65877 99.8269 12.6256 99.8269C21.1564 99.8269 24 92.0731 24.7678 84.6912C25.2796 79.77 25.3365 74.7343 25.564 69.7844C25.8199 62.8603 25.9621 55.9076 25.8768 48.9549L25.8483 46.3513L25.7915 43.7476C25.7346 42.0023 25.6777 40.2569 25.6209 38.5116C25.4787 35.021 25.2227 31.5303 24.9384 28.0397C24.6256 24.549 24.2275 21.0297 23.6588 17.5105C23.5735 16.8524 23.4313 16.1943 23.3175 15.5363C25.3934 16.3946 27.4976 17.1957 29.6303 17.9397C32.0758 18.7408 34.5498 19.4561 37.0806 20.0569L38.019 20.2858L38.9858 20.4861C39.6114 20.6292 40.2654 20.7722 40.891 20.8867C41.545 21.0011 42.1706 21.1156 42.8246 21.23L44.7583 21.4875C47.346 21.8023 49.9905 22.0025 52.6351 22.0312C53.9716 22.0025 55.2796 22.0025 56.6161 21.8881C57.9526 21.8023 59.2891 21.602 60.6256 21.4303C63.2986 21.0011 65.9431 20.3431 68.5024 19.4561C69.0142 19.2844 69.4976 19.0841 69.981 18.8838L70.0379 22.2314C70.0948 25.4932 70.1232 28.7549 70.2085 32.0453C70.2654 35.3071 70.3507 38.5688 70.4645 41.8592L70.6066 46.7518L70.7773 51.6445C71.0047 58.168 71.3175 64.7201 71.6588 71.2436C71.8578 74.8201 72.0853 78.368 72.3412 81.9445C70.1517 78.1677 66.0853 75.6212 61.4218 75.6212C54.455 75.6212 48.7962 81.315 48.7962 88.3249C48.7962 95.3348 54.455 101.029 61.4218 101.029C76.0948 101.029 74.0758 81.2578 74.8436 71.3008C75.3555 64.7773 75.782 58.2538 76.1517 51.7017L76.436 46.8091L76.6919 41.9164C76.8626 38.6547 77.0047 35.3929 77.1469 32.1312C77.2891 28.8694 77.4028 25.6076 77.545 22.3459L77.7156 17.4533L77.8578 12.5606L78.0569 5.72238L71.8294 9.01274Z" fill="white"/>
</svg>
