<svg width="416" height="71" viewBox="0 0 416 71" fill="none" xmlns="http://www.w3.org/2000/svg">
<rect x="22.0002" y="11" width="372" height="44" fill="#F7A61B"/>
<path d="M21.187 55V10.2H27.139L39.043 40.088V10.2H44.995V55H39.043L27.139 25.112V55H21.187ZM54.2295 55C53.0348 55 51.9895 54.552 51.0935 53.656C50.1975 52.76 49.7495 51.6507 49.7495 50.328V14.872C49.7495 13.5493 50.1975 12.44 51.0935 11.544C51.9895 10.648 53.0348 10.2 54.2295 10.2H68.7575C70.1228 10.2 71.2322 10.648 72.0855 11.544C72.9815 12.44 73.4295 13.5493 73.4295 14.872V50.328C73.4295 51.6507 72.9815 52.76 72.0855 53.656C71.2322 54.552 70.1228 55 68.7575 55H54.2295ZM57.8775 49.112H65.1095C65.8348 49.112 66.4108 48.8773 66.8375 48.408C67.3068 47.9387 67.5415 47.3627 67.5415 46.68V18.52C67.5415 17.7947 67.3068 17.2187 66.8375 16.792C66.4108 16.3227 65.8348 16.088 65.1095 16.088H57.8775C57.2802 16.088 56.7468 16.3227 56.2775 16.792C55.8508 17.2187 55.6375 17.7947 55.6375 18.52V46.68C55.6375 47.3627 55.8508 47.9387 56.2775 48.408C56.7468 48.8773 57.2802 49.112 57.8775 49.112ZM85.5145 55V16.152H76.6185V10.2H100.362V16.152H91.4665V55H85.5145ZM104.121 55V10.2H123.321C124.559 10.2 125.625 10.648 126.521 11.544C127.417 12.44 127.865 13.528 127.865 14.808V28.568C127.865 29.848 127.417 30.936 126.521 31.832C125.625 32.728 124.559 33.176 123.321 33.176H121.977L127.865 55H121.977L116.025 33.176H110.073V55H104.121ZM110.073 27.224H119.673C120.271 27.224 120.804 27.0107 121.273 26.584C121.743 26.1147 121.977 25.56 121.977 24.92V18.456C121.977 17.816 121.743 17.2827 121.273 16.856C120.804 16.3867 120.271 16.152 119.673 16.152H110.073V27.224ZM132.499 55V10.2H156.307V16.088H138.451V27.224H150.355L149.011 33.176H138.451V49.048H156.307V55H132.499ZM177.795 55C176.6 55 175.534 54.552 174.595 53.656C173.656 52.76 173.187 51.672 173.187 50.392V14.808C173.187 13.5707 173.656 12.504 174.595 11.608C175.534 10.6693 176.6 10.2 177.795 10.2H192.323C193.646 10.2 194.734 10.6693 195.587 11.608C196.483 12.504 196.931 13.5707 196.931 14.808V23.128L190.979 24.472V18.456C190.979 17.8587 190.766 17.3253 190.339 16.856C189.955 16.3867 189.422 16.152 188.739 16.152H181.443C180.846 16.152 180.312 16.3867 179.843 16.856C179.374 17.3253 179.139 17.8587 179.139 18.456V46.744C179.139 47.4267 179.374 47.9813 179.843 48.408C180.312 48.8347 180.846 49.048 181.443 49.048H188.739C189.422 49.048 189.955 48.8347 190.339 48.408C190.766 47.9813 190.979 47.4267 190.979 46.744V42.072L196.931 40.664V50.392C196.931 51.672 196.483 52.76 195.587 53.656C194.734 54.552 193.646 55 192.323 55H177.795ZM199.752 55.064L208.776 10.264H214.6L223.496 55.064H217.544L215.816 46.68H207.304L205.704 55.064H199.752ZM208.456 40.792H214.792L211.72 24.856L208.456 40.792ZM226.312 55V10.2H232.264L241.16 37.528L250.056 10.2H256.008V55H250.056V28.376L244.104 46.616H238.216L232.264 28.376V55H226.312ZM261.374 55V10.2H280.574C281.812 10.2 282.878 10.648 283.774 11.544C284.713 12.44 285.182 13.528 285.182 14.808V28.568C285.182 29.848 284.713 30.936 283.774 31.832C282.878 32.728 281.812 33.176 280.574 33.176H267.326V55H261.374ZM267.326 27.224H276.926C277.566 27.224 278.1 27.0107 278.526 26.584C278.996 26.1147 279.23 25.56 279.23 24.92V18.392C279.23 17.7947 278.996 17.2827 278.526 16.856C278.1 16.3867 277.566 16.152 276.926 16.152H267.326V27.224ZM284.189 55.064L293.213 10.264H299.037L307.933 55.064H301.981L300.253 46.68H291.741L290.141 55.064H284.189ZM292.893 40.792H299.229L296.157 24.856L292.893 40.792ZM315.357 55C314.077 55 312.989 54.552 312.093 53.656C311.197 52.76 310.749 51.672 310.749 50.392V14.744C310.749 13.5067 311.197 12.44 312.093 11.544C312.989 10.648 314.077 10.2 315.357 10.2H329.885C331.165 10.2 332.253 10.648 333.149 11.544C334.045 12.44 334.493 13.5067 334.493 14.744V24.728L328.541 23.384V18.392C328.541 17.752 328.307 17.2187 327.837 16.792C327.411 16.3227 326.877 16.088 326.237 16.088H319.005C318.365 16.088 317.811 16.3227 317.341 16.792C316.915 17.2187 316.701 17.752 316.701 18.392V46.744C316.701 47.384 316.915 47.9387 317.341 48.408C317.811 48.8347 318.365 49.048 319.005 49.048H326.237C326.877 49.048 327.411 48.8347 327.837 48.408C328.307 47.9387 328.541 47.384 328.541 46.744V40.536H322.653L323.997 34.584H334.493V50.392C334.493 51.672 334.045 52.76 333.149 53.656C332.253 54.552 331.165 55 329.885 55H315.357ZM341.812 55V10.2H347.764L359.668 40.088V10.2H365.62V55H359.668L347.764 25.112V55H341.812ZM370.999 55V10.2H394.807V16.088H376.951V27.224H388.855L387.511 33.176H376.951V49.048H394.807V55H370.999Z" fill="white"/>
</svg>
