<svg width="35" height="49" viewBox="0 0 35 49" fill="none" xmlns="http://www.w3.org/2000/svg">
<path d="M17.5001 0C7.98673 0 0.247314 7.86105 0.247314 17.5231V31.4773C0.247314 41.1394 7.98673 49 17.5001 49C27.0129 49 34.7529 41.1633 34.7529 31.5309V17.5231C34.7529 7.86105 27.0129 0 17.5001 0ZM31.5078 31.5309C31.5078 39.3742 25.2243 45.755 17.5001 45.755C9.77638 45.755 3.49242 39.3499 3.49242 31.4769V17.5231C3.49242 9.65013 9.77638 3.24501 17.5001 3.24501C25.2244 3.24501 31.5078 9.65013 31.5078 17.5231V31.5309Z" fill="#CFCFCF"/>
<path d="M17.5 13.4128C16.6038 13.4128 15.8774 14.1392 15.8774 15.0354V20.7142C15.8774 21.6104 16.6038 22.3368 17.5 22.3368C18.3962 22.3368 19.1225 21.6104 19.1225 20.7142V15.0354C19.1225 14.1392 18.3962 13.4128 17.5 13.4128Z" fill="#CFCFCF"/>
</svg>
