<svg width="163" height="138" viewBox="0 0 163 138" fill="none" xmlns="http://www.w3.org/2000/svg">
<path d="M153.697 38.3518C151.06 32.647 147.962 27.3168 144.447 22.3615C136.578 32.8968 124.314 42.7242 109.121 49.6783C102.215 52.8431 95.2251 55.175 88.4446 56.7158C92.086 47.6795 94.4299 37.9354 95.267 27.6916C95.7692 21.4454 95.7274 15.2824 95.0995 9.24442C83.0035 14.5745 67.4753 17.1147 50.7751 15.7821C32.4427 14.283 16.2866 8.3283 5.02765 0C2.60007 7.37055 1.00958 15.1159 0.339898 23.1943C-2.50624 57.8817 12.729 89.9457 38.2605 110.1C50.7751 104.104 61.9504 95.6089 70.9911 85.1986C86.2263 114.348 114.102 133.128 144.781 138C164.621 109.684 169.267 71.9566 153.697 38.3518ZM58.0998 46.5136C58.5602 41.0169 64.8384 37.061 72.163 37.6439C79.4876 38.2269 85.0125 43.1823 84.5939 48.6789C84.4684 50.0531 84.008 51.3024 83.2546 52.4267C81.5385 48.6789 77.0601 45.764 71.5352 45.306C66.0103 44.8479 61.1133 47.0133 58.8113 50.4279C58.2253 49.1786 57.9742 47.8461 58.0998 46.5136ZM8.41791 46.3054C7.87379 45.0561 7.62266 43.7652 7.70637 42.3911C8.16678 36.8944 14.445 32.9384 21.7696 33.5214C29.0943 34.1044 34.6191 39.0597 34.2006 44.5564C34.075 45.9306 33.6146 47.1798 32.8612 48.3042C31.1452 44.5564 26.6667 41.6415 21.1418 41.1835C15.617 40.7254 10.7199 42.8491 8.41791 46.3054ZM62.2434 79.9101C61.6156 87.697 52.6586 93.3603 42.2786 92.4858C31.8985 91.653 23.988 84.6156 24.6158 76.8286C24.7832 74.9131 25.4529 73.1225 26.4993 71.4985C28.9268 76.8286 35.3306 80.9511 43.1575 81.6174C50.9844 82.242 57.9742 79.2022 61.2389 74.3301C62.0341 76.1207 62.4108 77.9946 62.2434 79.9101ZM138.503 58.2981C145.158 55.2583 152.441 56.8407 154.743 61.8377C155.329 63.0869 155.538 64.4194 155.413 65.752C152.064 63.2951 146.707 63.0036 141.684 65.2939C136.662 67.5842 133.439 71.8733 133.146 75.9541C132.057 75.1629 131.179 74.1219 130.593 72.9143C128.291 67.8757 131.806 61.3796 138.503 58.2981ZM109.54 86.7809C106.191 84.3241 100.834 84.0326 95.8111 86.3229C90.7885 88.6132 87.5656 92.9022 87.2727 96.9831C86.1844 96.1919 85.3055 95.1509 84.7195 93.9433C82.4175 88.9463 85.9333 82.4086 92.5882 79.3687C99.2432 76.3289 106.526 77.9113 108.828 82.9083C109.414 84.1159 109.623 85.4484 109.54 86.7809ZM155.413 113.432C150.683 109.975 143.065 109.517 135.908 112.765C128.793 116.055 124.189 122.093 123.77 127.964C122.222 126.84 120.966 125.383 120.171 123.634C116.864 116.513 121.887 107.227 131.346 102.896C140.805 98.5655 151.143 100.814 154.45 107.893C155.245 109.642 155.538 111.516 155.413 113.432Z" fill="white"/>
</svg>
