<svg width="49" height="49" viewBox="0 0 49 49" fill="none" xmlns="http://www.w3.org/2000/svg">
<path d="M43.75 0H5.25C2.35156 0 0 2.35156 0 5.25V43.75C0 46.6484 2.35156 49 5.25 49H43.75C46.6484 49 49 46.6484 49 43.75V5.25C49 2.35156 46.6484 0 43.75 0ZM38.4016 17.3687C38.4234 17.675 38.4234 17.9922 38.4234 18.2984C38.4234 27.7812 31.2047 38.7078 18.0141 38.7078C13.9453 38.7078 10.1719 37.5266 7 35.4922C7.57969 35.5578 8.1375 35.5797 8.72813 35.5797C12.0859 35.5797 15.1703 34.4422 17.6313 32.5172C14.4813 32.4516 11.8344 30.3844 10.9266 27.5406C12.0312 27.7047 13.0266 27.7047 14.1641 27.4094C10.8828 26.7422 8.42188 23.8547 8.42188 20.3656V20.2781C9.37344 20.8141 10.4891 21.1422 11.6594 21.1859C10.6755 20.5315 9.86889 19.6436 9.31161 18.6016C8.75433 17.5595 8.46369 16.3958 8.46562 15.2141C8.46562 13.8797 8.81563 12.6547 9.43906 11.5938C12.9719 15.9469 18.2766 18.7906 24.2266 19.0969C23.2094 14.2297 26.8516 10.2812 31.2266 10.2812C33.2938 10.2812 35.1531 11.1453 36.4656 12.5453C38.0844 12.2391 39.6375 11.6375 41.0156 10.8172C40.4797 12.4797 39.3531 13.8797 37.8656 14.7656C39.3094 14.6125 40.7094 14.2078 42 13.65C41.0266 15.0828 39.8016 16.3516 38.4016 17.3687Z" fill="black"/>
</svg>
