<?xml version="1.0" encoding="utf-8"?>
<!-- Generator: Adobe Illustrator 24.0.1, SVG Export Plug-In . SVG Version: 6.00 Build 0)  -->
<svg version="1.1" id="Calque_1" xmlns="http://www.w3.org/2000/svg" xmlns:xlink="http://www.w3.org/1999/xlink" x="0px" y="0px"
	 viewBox="0 0 1900 672" style="enable-background:new 0 0 1900 672;" xml:space="preserve">
<style type="text/css">
	.st0{fill:#FF8202;}
	.st1{fill:#F7A61B;}
	.st2{fill:#FFB507;}
</style>
<g>
	<path class="st0" d="M0,0v672h185.4L506.3,0H0z"/>
	<path class="st1" d="M185.4,672h118.4l83-421.9L185.4,672z"/>
	<path class="st0" d="M761.7,0L626.4,552L1122.9,0H761.7z"/>
	<path class="st2" d="M506.3,0L386.8,250.1l-83,421.9h293.1L761.7,0H506.3z"/>
	<path class="st2" d="M1900,0h-190.3l-108.6,672H1900V0z"/>
	<path class="st1" d="M1709.7,0h-302.8l-16.3,672h210.5L1709.7,0z"/>
	<path class="st1" d="M1122.9,0L626.4,552l-29.4,120h506.3c47.3-172.6,132.5-482.8,184.8-672H1122.9z"/>
	<path class="st0" d="M1288.1,0c-52.3,189.2-137.4,499.4-184.8,672h287.3l16.3-672H1288.1z"/>
</g>
</svg>
