<svg width="104" height="95" viewBox="0 0 104 95" fill="none" xmlns="http://www.w3.org/2000/svg">
<path d="M100 33.6826H40.2L24.0667 26.109L14.6333 29.5607L23.4 33.6491H4C1.8 33.6491 0 35.4587 0 37.6705V89.9821C0 92.1938 1.8 94.0034 4 94.0034H100C102.2 94.0034 104 92.1938 104 89.9821V37.704C104 35.4922 102.2 33.6826 100 33.6826Z" fill="white"/>
<path d="M85.6667 17.4965L68.9667 9.68829L59.5 13.14L76.2 20.9817L85.6667 17.4965Z" fill="white"/>
<path d="M63.2333 25.7068L46.5333 17.8987L37.0667 21.3503L53.7666 29.1921L63.2333 25.7068Z" fill="white"/>
<path d="M99.4001 12.4697C100.833 11.9336 101.6 10.325 101.067 8.88401L98.5335 1.84657C98.0001 0.405576 96.4001 -0.36519 94.9668 0.170995L81.9668 4.92964L98.6668 12.7378L99.4001 12.4697Z" fill="white"/>
</svg>
