<svg width="74" height="68" viewBox="0 0 74 68" fill="none" xmlns="http://www.w3.org/2000/svg">
<path d="M71.1538 24.0828H28.6038L17.1244 18.6939L10.4122 21.1499L16.65 24.0589H2.84615C1.28077 24.0589 0 25.3466 0 26.9203V64.142C0 65.7158 1.28077 67.0034 2.84615 67.0034H71.1538C72.7192 67.0034 74 65.7158 74 64.142V26.9442C74 25.3704 72.7192 24.0828 71.1538 24.0828Z" fill="white"/>
<path d="M60.9551 12.5658L49.0724 7.00993L42.3365 9.46594L54.2192 15.0456L60.9551 12.5658Z" fill="white"/>
<path d="M44.993 18.4077L33.1103 12.8519L26.3744 15.3079L38.2571 20.8876L44.993 18.4077Z" fill="white"/>
<path d="M70.727 8.98904C71.7469 8.60752 72.2924 7.46297 71.9129 6.43765L70.1103 1.43024C69.7308 0.404915 68.5924 -0.143515 67.5725 0.238001L58.3225 3.62396L70.2052 9.1798L70.727 8.98904Z" fill="white"/>
</svg>
