<svg width="101" height="114" viewBox="0 0 101 114" fill="none" xmlns="http://www.w3.org/2000/svg">
<path d="M37.3565 0H6.73364V9.36197H37.3565V0Z" fill="white"/>
<path d="M43.6215 61.2272V61.2038L42.5559 52.3802L29.0186 38.8521L39.6399 28.238L38.2581 16.793L22.6012 32.4392L6.11287 15.9621L5.00623 27.6821L16.1839 38.8521L2.6817 52.3451L1.99078 59.6825V59.7059C0.714339 64.1412 0 69.0679 0 74.2521C0 93.801 10.1178 109.652 22.6012 109.652C35.0846 109.652 45.2024 93.801 45.2024 74.2521C45.2024 69.653 44.6403 65.2587 43.6215 61.2272ZM22.8061 94.2048C12.3838 94.2048 3.75321 81.806 2.23084 65.6215L22.6012 45.2651L43.3463 65.996C41.7244 81.9933 33.1465 94.2048 22.8061 94.2048Z" fill="white"/>
<path d="M75.0256 2.53225L45.2051 9.48807L47.3345 18.6048L77.1551 11.6489L75.0256 2.53225Z" fill="white"/>
<path d="M95.0597 60.73L95.0538 60.7066L92.0091 52.3569L75.7491 42.2576L83.6771 29.5137L79.7248 18.683L68.0378 37.4713L48.2354 25.1721L49.828 36.8394L63.254 45.1774L53.1772 61.3853L54.1726 68.6876L54.1784 68.711C53.9442 73.3218 54.3716 78.2778 55.5485 83.3274C59.9985 102.367 73.4539 115.503 85.6093 112.665C97.7648 109.828 104.012 92.0984 99.5682 73.0585C98.5143 68.5765 96.9685 64.4279 95.0597 60.73ZM82.2894 97.5751C72.1423 99.9449 60.9178 89.8281 55.7476 74.416L70.9537 49.9637L95.8677 65.4402C97.9346 81.3848 92.3604 95.223 82.2894 97.5751Z" fill="white"/>
</svg>
