<svg width="61" height="68" viewBox="0 0 61 68" fill="none" xmlns="http://www.w3.org/2000/svg">
<path d="M22.7045 -4.3869e-05H4.54199V5.55257H22.7045V-4.3869e-05Z" fill="white"/>
<path d="M26.4203 36.3141V36.3002L25.7883 31.0668L17.7593 23.0433L24.0589 16.748L23.2393 9.95994L13.9531 19.2398L4.17383 9.46715L3.51748 16.4183L10.147 23.0433L2.13879 31.046L1.729 35.3979V35.4118C0.971941 38.0423 0.548264 40.9644 0.548264 44.0391C0.548264 55.6337 6.5492 65.035 13.9531 65.035C21.3571 65.035 27.358 55.6337 27.358 44.0391C27.358 41.3114 27.0246 38.7052 26.4203 36.3141ZM14.0747 55.8731C7.89316 55.8731 2.7743 48.5194 1.87139 38.9203L13.9531 26.8468L26.2571 39.1424C25.2952 48.6305 20.2076 55.8731 14.0747 55.8731Z" fill="white"/>
<path d="M45.0461 1.50185L27.3595 5.62737L28.6224 11.0345L46.3091 6.90899L45.0461 1.50185Z" fill="white"/>
<path d="M56.9285 36.0191L56.9251 36.0052L55.1192 31.053L45.4754 25.0631L50.1775 17.5046L47.8334 11.0809L40.9017 22.2243L29.1568 14.9296L30.1014 21.8495L38.0645 26.7948L32.0879 36.4078L32.6782 40.7388L32.6817 40.7527C32.5428 43.4874 32.7963 46.4268 33.4943 49.4217C36.1336 60.7144 44.114 68.5054 51.3235 66.8222C58.5329 65.1391 62.2384 54.6238 59.6026 43.3312C58.9775 40.6729 58.0606 38.2124 56.9285 36.0191ZM49.3544 57.8721C43.3361 59.2776 36.6788 53.2773 33.6124 44.1363L42.6312 29.6336L57.4078 38.8128C58.6337 48.2696 55.3276 56.477 49.3544 57.8721Z" fill="white"/>
</svg>
