<svg width="42" height="67" viewBox="0 0 42 67" fill="none" xmlns="http://www.w3.org/2000/svg">
<path d="M9.99751 0.0459608L9.81148 0.0340335C8.05004 -0.103131 6.13744 0.177161 4.42832 0.821237C2.7657 1.45339 1.43444 2.35986 0.684522 3.38561C0.475241 3.67187 0.312468 3.96409 0.202014 4.25631L0.0915603 4.20263V4.6022C-0.0305201 5.06736 -0.0305201 5.52657 0.0915603 5.96788V50.5224L33.5183 67V20.6802L1.99253 5.13893C2.02741 4.97791 2.12042 4.799 2.25994 4.6022C3.2889 3.2067 6.41067 1.86488 9.48012 2.03782L40.0235 17.0066V58.293C40.0235 58.8536 40.4653 59.3069 41.0117 59.3069C41.5582 59.3069 42 58.8536 42 58.293V15.7304L9.99751 0.0459608Z" fill="white"/>
</svg>
