<svg width="52" height="67" viewBox="0 0 52 67" fill="none" xmlns="http://www.w3.org/2000/svg">
<path d="M47.8514 5.97707C46.5632 6.67914 45.2372 7.24838 43.8543 7.70377C42.4525 8.14019 41.0128 8.46277 39.5541 8.67149C38.8153 8.74739 38.0765 8.84226 37.3188 8.86124C36.58 8.91816 35.8222 8.91816 35.0645 8.91816C33.549 8.89919 32.0335 8.76636 30.4991 8.57661C27.4492 8.15917 24.4182 7.4571 21.4251 6.50836C19.9286 6.03399 18.451 5.52167 16.9923 4.93345C16.2725 4.64883 15.5337 4.34524 14.8328 4.02266L13.7719 3.52932L13.2605 3.28265L12.7869 3.05495L6.66812 7.62939e-06L8.97924 6.35656L9.24444 7.07761C9.33916 7.32428 9.41494 7.55198 9.49071 7.81762C9.64226 8.32994 9.81275 8.82329 9.94535 9.35458C10.078 9.88588 10.2295 10.3982 10.3432 10.9295C10.4568 11.4608 10.5894 11.9921 10.7031 12.5423C11.1577 14.7055 11.5366 16.9255 11.8587 19.1646C12.1996 21.4036 12.4838 23.6426 12.749 25.9006C13.0332 28.1586 13.2605 30.4166 13.5067 32.6936C13.6204 33.8321 13.7341 34.9706 13.8477 36.109L14.1698 39.5245L14.7949 46.3554C15.0033 48.6134 15.1927 50.8714 15.4011 53.1294C13.8856 50.8714 11.3282 49.3724 8.41093 49.3724C3.76976 49.3535 0 53.1294 0 57.7783C0 62.4271 3.76976 66.2031 8.41093 66.2031C14.094 66.2031 15.9883 61.0609 16.4998 56.1654C16.8408 52.9017 16.8787 49.5622 17.0302 46.2795C17.2007 41.6876 17.2954 37.0768 17.2386 32.4659L17.2197 30.7392L17.1818 29.0125C17.1439 27.855 17.106 26.6975 17.0681 25.5401C16.9734 23.2252 16.8029 20.9102 16.6135 18.5953C16.4051 16.2804 16.1399 13.9465 15.761 11.6126C15.7042 11.1762 15.6095 10.7397 15.5337 10.3033C16.9166 10.8726 18.3184 11.4039 19.7392 11.8972C21.3683 12.4285 23.0164 12.9029 24.7024 13.3013L25.3275 13.4531L25.9716 13.586C26.3883 13.6808 26.824 13.7757 27.2408 13.8516C27.6765 13.9275 28.0933 14.0034 28.529 14.0793L29.8171 14.2501C31.541 14.4588 33.3027 14.5916 35.0645 14.6106C35.9548 14.5916 36.8262 14.5916 37.7166 14.5157C38.6069 14.4588 39.4973 14.326 40.3876 14.2121C42.1683 13.9275 43.9301 13.4911 45.635 12.9029C45.976 12.789 46.298 12.6562 46.62 12.5234L46.6579 14.7434C46.6958 16.9065 46.7148 19.0697 46.7716 21.2518C46.8095 23.4149 46.8663 25.578 46.9421 27.7601L47.0368 31.0048L47.1505 34.2495C47.302 38.5758 47.5104 42.921 47.7377 47.2472C47.8703 49.6191 48.0219 51.972 48.1923 54.3438C46.7337 51.8391 44.0248 50.1504 40.918 50.1504C36.2769 50.1504 32.5071 53.9264 32.5071 58.5752C32.5071 63.224 36.2769 67 40.918 67C50.6929 67 49.3479 53.8884 49.8594 47.2852C50.2004 42.9589 50.4845 38.6327 50.7308 34.2875L50.9202 31.0428L51.0907 27.7981C51.2044 25.635 51.2991 23.4718 51.3938 21.3087C51.4885 19.1456 51.5643 16.9824 51.659 14.8193L51.7727 11.5746L51.8674 8.32994L52 3.79497L47.8514 5.97707Z" fill="white"/>
</svg>
