<svg width="57" height="67" viewBox="0 0 57 67" fill="none" xmlns="http://www.w3.org/2000/svg">
<path d="M0.837923 46.8895C1.46399 47.3944 4.43035 44.8554 8.17183 40.7871L23.0931 25.8501C23.4806 25.5383 23.8384 25.1671 24.1812 24.7514L24.1961 24.7365C26.2532 22.2421 26.4619 19.0201 24.6582 17.565C22.8695 16.1099 19.7391 16.9414 17.697 19.4507L17.6821 19.4655C17.2945 19.9407 16.9815 20.4306 16.7281 20.9355L5.05641 38.9608C1.98571 43.2073 0.24167 46.3996 0.837923 46.8895Z" fill="white"/>
<path d="M25.7613 16.4663C28.6978 18.8568 32.0517 17.8768 34.0045 15.4269C34.6603 14.6103 35.1523 13.6155 35.4206 12.5316C36.4342 8.41872 35.2417 4.06829 34.8243 -2.47955e-05C35.1523 3.28135 26.9985 5.43429 24.8967 8.00297C22.7949 10.5865 23.1825 14.3727 25.7613 16.4663Z" fill="white"/>
<path d="M56.7515 37.0454C56.6323 36.2288 56.4534 35.3973 56.2 34.5807C53.3529 25.0038 43.2613 19.5398 33.6467 22.3609C29.5326 23.5635 25.9551 26.2213 23.5999 29.7996C21.1403 33.5562 21.1702 38.4114 18.2187 41.871C17.4287 42.8064 16.4299 43.5933 15.312 44.0833C14.1046 44.6178 12.8077 44.5881 11.5407 44.9593C5.59304 46.7114 2.1944 52.9326 3.95335 58.8718C5.17567 62.9995 8.76809 66.1175 13.0462 66.7708C15.4014 67.1272 17.7566 66.6224 20.0522 66.1769C30.2779 64.1873 40.9657 61.5889 49.1493 54.8183C50.1331 54.0017 51.0424 53.1108 51.9219 52.1902C53.1889 50.8688 54.2324 49.3691 55.0522 47.7359C57.3478 43.2964 57.154 39.2726 56.7515 37.0454ZM14.3729 60.8911C11.7046 61.678 8.88734 60.1635 8.09731 57.4909C7.30727 54.8331 8.82772 52.0269 11.5109 51.24C14.1791 50.453 16.9964 51.9675 17.7864 54.6401C18.5765 57.3127 17.0411 60.1041 14.3729 60.8911ZM34.72 34.5064C34.556 35.5012 34.0343 36.303 33.2592 36.9563C31.2617 38.6193 27.8035 39.4211 26.0892 37.0454C25.8805 36.8078 25.7017 36.5406 25.5526 36.2436C24.8222 35.2191 24.8669 33.9125 25.5526 32.9474C26.0147 32.3238 26.4768 31.5814 26.9985 30.9132C27.1774 30.6905 27.3563 30.4826 27.5352 30.2748C29.6817 27.5131 32.0965 30.9132 33.766 32.2198C33.9449 32.3832 34.1237 32.5762 34.2579 32.7841C34.3921 33.0513 34.556 33.3186 34.6604 33.6007C34.7945 33.8977 34.8393 34.1798 34.72 34.5064ZM39.1323 30.5272C39.0876 30.1857 39.0577 29.859 39.0279 29.5472C38.9981 29.2354 38.9981 28.9385 38.9832 28.6564C39.013 28.3742 39.0577 28.0773 39.1323 27.7952C39.4751 26.3995 40.0863 25.1374 41.4726 24.7959C41.7856 24.7365 42.0837 24.7068 42.3818 24.7365C44.7967 25.0186 44.8563 27.7952 46.2575 29.2057C46.496 29.473 46.7196 29.7254 46.9283 29.9927C47.8227 30.8241 47.7779 32.1308 46.7941 32.8583C45.3482 33.8234 43.5893 34.1204 41.9347 34.4025C41.6365 34.447 41.3682 34.4322 41.1297 34.3579C40.3993 34.1352 39.9074 33.3928 39.5944 32.4871C39.49 32.1902 39.4006 31.8635 39.3261 31.5368C39.2515 31.2102 39.177 30.8538 39.1323 30.5272ZM47.8376 53.1999C46.2128 54.655 43.9768 55.2043 41.8154 55.1895C40.6229 55.2192 39.8031 54.2689 39.5049 53.2741C39.2068 52.2793 40.131 51.3587 40.6378 50.4382C40.8167 50.1561 40.9956 49.8888 41.1595 49.6067C41.6813 48.7604 42.1881 47.8843 42.5756 46.845C42.9334 46.2065 43.7532 46.0729 44.3793 46.0729C44.6923 46.1026 45.0203 46.1768 45.3184 46.2659C46.6451 46.6074 47.1519 47.9734 47.4351 49.1464C47.5096 49.4137 47.5991 49.6809 47.6885 49.9482C47.7779 50.1709 47.8823 50.4085 47.9568 50.646C48.0463 50.8836 48.1208 51.1212 48.1655 51.3736C48.4785 52.0417 48.3742 52.8287 47.8376 53.1999ZM51.43 43.5933C51.2362 43.7863 50.9977 43.9348 50.7294 44.0536C50.4611 44.1724 50.163 44.2466 49.8648 44.2763C49.5518 44.306 49.2388 44.306 48.9406 44.2615C48.6425 44.2318 48.3295 44.1575 48.0463 44.0684C47.763 43.9794 47.4798 43.8606 47.2115 43.7121C45.8401 42.8509 44.3495 41.1286 45.229 39.6883C46.4364 37.9214 48.2251 36.9712 49.2388 34.937C49.522 34.4173 50.0884 34.1501 50.6698 33.8977C50.9679 33.8086 51.266 33.7937 51.5641 33.8086C52.4734 33.868 53.338 34.2986 53.815 35.0261C53.9492 35.2191 54.0535 35.427 54.1131 35.6646C54.5156 38.4856 52.6821 41.0692 51.43 43.5933Z" fill="white"/>
</svg>
