<svg width="101" height="121" viewBox="0 0 101 121" fill="none" xmlns="http://www.w3.org/2000/svg">
<path d="M0.213982 84.1385C1.33739 85.0444 6.66022 80.4884 13.3739 73.1883L40.1486 46.3854C40.844 45.8259 41.486 45.1598 42.1012 44.4138L42.1279 44.3872C45.8191 39.9112 46.1936 34.1296 42.9571 31.5186C39.7473 28.9076 34.1303 30.3996 30.4658 34.9023L30.4391 34.9289C29.7436 35.7815 29.1819 36.6607 28.7272 37.5666L7.78363 69.9112C2.27357 77.5311 -0.855933 83.2593 0.213982 84.1385Z" fill="white"/>
<path d="M44.9363 29.5471C50.2056 33.8366 56.2239 32.0782 59.7279 27.6821C60.9048 26.2167 61.7874 24.4316 62.2689 22.4867C64.0878 15.1066 61.9479 7.30018 61.199 0C61.7874 5.8881 47.1564 9.75133 43.3849 14.3606C39.6134 18.9964 40.3089 25.7904 44.9363 29.5471Z" fill="white"/>
<path d="M100.545 66.4742C100.331 65.0089 100.01 63.5169 99.5557 62.0515C94.4468 44.8668 76.3385 35.0622 59.0861 40.1243C51.7037 42.2824 45.2842 47.0515 41.058 53.4725C36.6446 60.2131 36.6981 68.9254 31.4021 75.1332C29.9844 76.8117 28.1923 78.2238 26.1862 79.103C24.0196 80.0622 21.6926 80.0089 19.419 80.6749C8.7466 83.8188 2.64808 94.9822 5.80433 105.639C7.99766 113.046 14.4439 118.641 22.1205 119.813C26.3467 120.453 30.5729 119.547 34.692 118.748C53.0411 115.178 72.2193 110.515 86.9039 98.3659C88.6693 96.9005 90.3009 95.3019 91.879 93.6501C94.1526 91.2789 96.0249 88.5879 97.4961 85.6572C101.615 77.6909 101.268 70.4707 100.545 66.4742ZM24.5011 109.263C19.7132 110.675 14.6579 107.957 13.2402 103.162C11.8226 98.3925 14.5509 93.357 19.3655 91.9449C24.1534 90.5329 29.2087 93.2504 30.6264 98.0462C32.044 102.842 29.289 107.851 24.5011 109.263ZM61.012 61.9183C60.7177 63.7034 59.7816 65.1421 58.3907 66.3144C54.8064 69.2984 48.6009 70.7371 45.5249 66.4742C45.1505 66.048 44.8295 65.5684 44.562 65.0355C43.2514 63.1972 43.3316 60.8526 44.562 59.1208C45.3912 58.0018 46.2204 56.6696 47.1566 55.4707C47.4775 55.071 47.7985 54.698 48.1195 54.325C51.9712 49.3694 56.3043 55.4707 59.3001 57.8153C59.6211 58.1083 59.942 58.4547 60.1828 58.8277C60.4235 59.3073 60.7177 59.7868 60.905 60.2931C61.1457 60.8259 61.2259 61.3321 61.012 61.9183ZM68.9293 54.778C68.8491 54.1652 68.7956 53.579 68.7421 53.0195C68.6886 52.46 68.6886 51.9272 68.6619 51.421C68.7154 50.9147 68.7956 50.3819 68.9293 49.8757C69.5445 47.3712 70.6412 45.1066 73.1287 44.4938C73.6905 44.3872 74.2254 44.3339 74.7604 44.3872C79.0935 44.8934 79.2005 49.8757 81.7148 52.4067C82.1428 52.8863 82.544 53.3392 82.9185 53.8188C84.5233 55.3108 84.4431 57.6554 82.6777 58.9609C80.0832 60.6927 76.9269 61.2256 73.9579 61.7318C73.423 61.8117 72.9415 61.7851 72.5135 61.6519C71.2029 61.2522 70.3202 59.9201 69.7585 58.2948C69.5713 57.762 69.4108 57.1758 69.2771 56.5897C69.1433 56.0035 69.0096 55.3641 68.9293 54.778ZM84.5501 95.4618C81.6346 98.0728 77.6224 99.0586 73.744 99.032C71.6041 99.0853 70.133 97.3801 69.598 95.595C69.0631 93.8099 70.7214 92.1581 71.6309 90.5062C71.9518 90 72.2728 89.5204 72.567 89.0142C73.5032 87.4956 74.4126 85.9236 75.1081 84.0586C75.75 82.913 77.2212 82.6732 78.3446 82.6732C78.9063 82.7265 79.4948 82.8597 80.0297 83.0195C82.4103 83.6323 83.3197 86.0835 83.8279 88.1883C83.9616 88.6678 84.1221 89.1474 84.2826 89.627C84.4431 90.0266 84.6303 90.4529 84.7641 90.8792C84.9246 91.3055 85.0583 91.7318 85.1385 92.1847C85.7002 93.3837 85.513 94.7957 84.5501 95.4618ZM90.9963 78.2238C90.6486 78.5702 90.2206 78.8366 89.7392 79.0497C89.2577 79.2629 88.7228 79.3961 88.1878 79.4494C87.6261 79.5027 87.0644 79.5027 86.5294 79.4227C85.9945 79.3694 85.4328 79.2362 84.9246 79.0764C84.4164 78.9165 83.9081 78.7034 83.4267 78.4369C80.9659 76.8916 78.2911 73.8011 79.8692 71.2167C82.0358 68.0462 85.2455 66.341 87.0644 62.6909C87.5726 61.7584 88.589 61.2789 89.6322 60.8259C90.1672 60.6661 90.7021 60.6394 91.2371 60.6661C92.8687 60.7726 94.4201 61.5453 95.276 62.8508C95.5167 63.1972 95.704 63.5702 95.811 63.9964C96.5331 69.0586 93.2432 73.6945 90.9963 78.2238Z" fill="white"/>
</svg>
