<svg width="99" height="67" viewBox="0 0 99 67" fill="none" xmlns="http://www.w3.org/2000/svg">
<path d="M95.9605 -3.43323e-05H3.03947C1.375 -3.43323e-05 0 1.37618 0 3.04213V63.9578C0 65.6238 1.375 67 3.03947 67H95.9605C97.625 67 99 65.6238 99 63.9578V3.04213C99 1.37618 97.625 -3.43323e-05 95.9605 -3.43323e-05ZM35.0987 59.0324C21.023 59.0324 9.58882 47.5881 9.58882 33.5C9.58882 19.3756 21.023 7.96753 35.0987 7.96753C49.1743 7.96753 60.6085 19.4119 60.6085 33.5C60.6085 47.5881 49.1743 59.0324 35.0987 59.0324Z" fill="white"/>
</svg>
