<svg width="100" height="82" viewBox="0 0 100 82" fill="none" xmlns="http://www.w3.org/2000/svg">
<path d="M14.538 56.7249C10.44 60.1832 5.43454 62.3275 0 62.6134V82H27.8218C27.5303 71.1906 22.2607 61.8052 14.538 56.7249Z" fill="white"/>
<path d="M85.4621 56.7249C89.56 60.1832 94.571 62.3275 100 62.6134V82H72.1782C72.4698 71.1906 77.7393 61.8052 85.4621 56.7249Z" fill="white"/>
<path d="M40.5721 0L0.363036 0.0219928C0.242024 0.0164946 0.121012 0.00549819 0 0V0.0219928V41.022V50.5339V60.4196C5.43454 60.1337 10.44 57.9894 14.538 54.531C18.1298 51.5015 21.0231 47.4659 22.9043 42.7869L40.5721 0Z" fill="white"/>
<path d="M99.34 0.0439855L59.428 0.0219928L77.0957 42.8034H77.1067C78.9879 47.4714 81.8812 51.5015 85.4621 54.5256C89.56 57.9839 94.571 60.1282 100 60.4141V50.5339V41.044V0.0439855V0C99.78 0.0109964 99.56 0.0274909 99.34 0.0439855Z" fill="white"/>
<path d="M58.2342 0.0219727H41.7545L41.5895 0.417842L34.7358 17.0114H65.2529L58.4102 0.439835L58.2342 0.0219727Z" fill="white"/>
</svg>
