<svg width="82" height="67" viewBox="0 0 82 67" fill="none" xmlns="http://www.w3.org/2000/svg">
<path d="M11.8786 46.3483C8.53026 49.1741 4.4404 50.9261 -1.52588e-05 51.1597V67H22.7324C22.4942 58.1679 18.1886 50.4993 11.8786 46.3483Z" fill="white"/>
<path d="M69.8287 46.3483C73.177 49.1741 77.2714 50.9261 81.7073 51.1597V67H58.9749C59.2131 58.1679 63.5186 50.4993 69.8287 46.3483Z" fill="white"/>
<path d="M33.1503 0L0.296612 0.0179697C0.197736 0.0134773 0.0988604 0.00449242 -1.52588e-05 0V0.0179697V33.518V41.2898V49.3672C4.4404 49.1336 8.53026 47.3816 11.8786 44.5558C14.8134 42.0805 17.1774 38.7831 18.7145 34.96L33.1503 0Z" fill="white"/>
<path d="M81.168 0.0359394L48.557 0.0179697L62.9928 34.9735H63.0018C64.5389 38.7876 66.9029 42.0805 69.8287 44.5513C73.177 47.3771 77.2714 49.1291 81.7073 49.3627V41.2898V33.5359V0.0359394V0C81.5275 0.00898484 81.3477 0.0224621 81.168 0.0359394Z" fill="white"/>
<path d="M47.5816 0.017952H34.1165L33.9816 0.341406L28.3817 13.8995H53.3164L47.7254 0.359376L47.5816 0.017952Z" fill="white"/>
</svg>
