<svg width="78" height="67" viewBox="0 0 78 67" fill="none" xmlns="http://www.w3.org/2000/svg">
<path d="M73.548 18.6201C72.2862 15.8503 70.8041 13.2625 69.1216 10.8567C65.3562 15.9716 59.4878 20.7429 52.2174 24.1192C48.9126 25.6557 45.5678 26.7879 42.3232 27.5359C44.0657 23.1488 45.1873 18.4179 45.5879 13.4445C45.8282 10.4119 45.8082 7.41973 45.5077 4.48823C39.7194 7.07604 32.2888 8.30929 24.2973 7.66234C15.5247 6.93452 7.7936 4.04345 2.40586 -5.72205e-06C1.24419 3.57845 0.483099 7.33886 0.162639 11.261C-1.19932 28.102 6.09115 43.6693 18.3087 53.4544C24.2973 50.5431 29.645 46.4188 33.9712 41.3645C41.2616 55.5166 54.6008 64.6346 69.2819 67C78.7755 53.2523 80.9987 34.9354 73.548 18.6201ZM27.8023 22.5827C28.0226 19.914 31.027 17.9934 34.532 18.2764C38.037 18.5594 40.6808 20.9653 40.4805 23.634C40.4204 24.3011 40.2001 24.9077 39.8396 25.4535C39.0184 23.634 36.8753 22.2188 34.2316 21.9964C31.5878 21.774 29.2444 22.8253 28.1428 24.4831C27.8624 23.8766 27.7422 23.2296 27.8023 22.5827ZM4.02819 22.4816C3.76782 21.8751 3.64764 21.2483 3.6877 20.5812C3.90802 17.9125 6.91233 15.9918 10.4174 16.2749C13.9224 16.5579 16.5662 18.9638 16.3659 21.6325C16.3058 22.2996 16.0855 22.9062 15.725 23.452C14.9038 21.6325 12.7607 20.2173 10.1169 19.9949C7.47314 19.7725 5.12977 20.8036 4.02819 22.4816ZM29.7852 38.7969C29.4847 42.5775 25.1986 45.3271 20.2315 44.9025C15.2643 44.4982 11.4789 41.0815 11.7793 37.3008C11.8594 36.3708 12.1799 35.5015 12.6806 34.713C13.8423 37.3008 16.9067 39.3023 20.6521 39.6258C24.3974 39.9291 27.7422 38.4532 29.3045 36.0878C29.685 36.9571 29.8653 37.8669 29.7852 38.7969ZM66.2776 28.3042C69.4621 26.8283 72.9471 27.5966 74.0487 30.0226C74.3291 30.6291 74.4293 31.2761 74.3692 31.923C72.7669 30.7302 70.2032 30.5887 67.7997 31.7007C65.3963 32.8126 63.8541 34.895 63.7139 36.8763C63.1931 36.4921 62.7725 35.9867 62.4921 35.4004C61.3905 32.9541 63.073 29.8002 66.2776 28.3042ZM52.4177 42.1328C50.8154 40.9399 48.2517 40.7984 45.8482 41.9104C43.4448 43.0223 41.9026 45.1047 41.7624 47.086C41.2416 46.7019 40.821 46.1964 40.5406 45.6101C39.439 43.1841 41.1214 40.01 44.306 38.5341C47.4906 37.0582 50.9756 37.8265 52.0772 40.2526C52.3576 40.8389 52.4577 41.4858 52.4177 42.1328ZM74.3692 55.0718C72.1059 53.3938 68.4607 53.1714 65.0358 54.7483C61.6309 56.3455 59.4277 59.277 59.2274 62.1276C58.4864 61.5818 57.8855 60.8742 57.505 60.025C55.9227 56.5679 58.3261 52.0594 62.8526 49.9568C67.3791 47.8543 72.3262 48.946 73.9085 52.3829C74.2891 53.232 74.4293 54.1418 74.3692 55.0718Z" fill="white"/>
</svg>
